<svg width="209" height="255" viewBox="0 0 209 255" fill="none" xmlns="http://www.w3.org/2000/svg">
<path d="M191.277 7.49172C183.561 0.683133 175.284 -0.738914 167.158 1.03632C165.086 0.715761 162.838 1.05313 160.669 2.2568C158.781 3.30467 157 4.47912 155.299 5.75682C143.762 12.3033 133.316 23.5466 126.252 32.5462C118.798 42.0407 112.836 52.5382 108.501 63.5974C101.339 52.5954 92.3078 42.7645 81.6805 34.6688C64.5418 21.616 36.2773 6.14124 13.9808 17.7838C2.13178 23.9701 -0.641 35.6891 0.828003 47.6566C2.64483 62.429 6.01003 76.9415 10.7454 91.0421C20.2594 119.372 34.7335 145.842 51.5012 170.626C70.7612 199.096 92.9731 225.557 115.245 251.809C121.961 259.726 132.915 251.226 131.477 242.756C133.893 242.654 136.224 241.776 137.709 239.898C172.592 195.765 195.994 144.115 204.513 89.3917C208.596 63.1762 213.68 27.2536 191.277 7.49172ZM137.731 75.9214C141.876 65.0352 146.45 54.3019 151.516 43.7735C152.5 41.7316 153.49 39.6554 154.533 37.6005C150.326 72.4395 136.994 106.131 129.294 140.64C128.342 137.363 127.388 134.083 126.435 130.805C125.674 128.188 124.135 126.409 122.242 125.346C126.434 108.621 131.566 92.1119 137.731 75.9214ZM46.8708 56.6491C47.0104 56.7457 47.1252 56.8281 47.1827 56.8753C49.3433 58.5988 51.4654 60.3683 53.5503 62.1777C54.7899 63.2544 56.0136 64.3502 57.2222 65.4561C56.4177 67.2086 56.232 69.2838 56.9834 71.5636C60.0567 80.8792 63.0672 90.2057 66.0713 99.5309C65.5977 98.6004 65.1213 97.6707 64.6448 96.7409C58.7368 85.1616 52.6112 73.6079 48.1427 61.3957C47.6613 60.0681 47.2923 58.356 46.8708 56.6491ZM145.231 195.438C145.274 195.441 145.318 195.441 145.361 195.445C145.332 195.491 145.302 195.538 145.274 195.587C145.26 195.537 145.244 195.488 145.231 195.438ZM148.091 158.997C153.21 141.312 159.473 123.99 166.841 107.096C161.703 124.676 155.118 141.947 148.091 158.997ZM186.68 38.3069C183.548 38.4401 180.441 39.9041 178.56 42.94C176.146 46.8363 173.813 50.7737 171.524 54.732C173.768 43.3512 175.281 31.8654 175.533 20.1933C177.283 21.0201 178.874 22.494 180.41 24.4416C183.616 28.5032 185.543 33.271 186.68 38.3069ZM90.1134 71.4763C82.9395 62.908 75.0537 54.9087 66.5273 47.5993C75.8089 54.1553 83.7563 62.284 90.1134 71.4763ZM20.2985 45.3019C19.8679 41.429 19.0366 36.9873 22.9613 34.6459C26.0692 32.7945 30.6847 32.8415 34.2934 33.2388C31.4296 34.2712 28.8254 36.4285 26.7417 40.1709C20.4398 51.4773 29.0196 67.1452 33.4445 77.442C46.1394 106.983 62.2203 135.332 76.8453 163.984C80.9385 172.004 84.617 180.208 88.47 188.281C70.8601 165.343 54.6992 141.407 42.0391 115.478C31.342 93.5714 23.0092 69.6165 20.2985 45.3019Z" fill="#8E3BBE" fill-opacity="0.07"/>
</svg>
