<svg width="1254" height="1350" viewBox="0 0 1254 1350" fill="none" xmlns="http://www.w3.org/2000/svg">
<path fill-rule="evenodd" clip-rule="evenodd" d="M965.944 0.607506C893.477 7.47951 828.692 35.2755 768.944 85.1315C756.18 95.7825 732.134 119.352 719.012 134.074C679.112 178.84 642.823 233.816 606.957 303.831C602.289 312.943 598.179 320.219 597.824 320C597.468 319.78 591.999 313.182 585.669 305.337C539.052 247.561 493.953 202.254 455.831 174.9C412.236 143.618 373.251 126.986 323.476 118.433C308.163 115.802 269.797 114.763 252.28 116.505C198.588 121.845 143.869 144.019 101.409 177.644C90.388 186.371 71.197 205.292 62.43 216.074C29.522 256.545 9.51203 307.09 2.45403 367.574C-7.35197 451.601 12.548 558.106 56.445 656.529C71.61 690.533 106.358 755.418 135.544 804.234C162.262 848.921 205.755 914.858 232.401 951.073C276.143 1010.53 309.019 1051.89 352.167 1101.77C425.267 1186.27 479.053 1239.95 539.444 1288.68C589.757 1329.27 618.148 1345.08 647.398 1348.77C672.165 1351.9 696.635 1342.03 718.454 1320.12C734.953 1303.55 816.851 1194.08 874.093 1112.07C947.94 1006.28 1000.01 923.353 1078.17 787.073C1117.57 718.377 1152.91 651.225 1169.74 613.068C1171.93 608.121 1176.4 597.998 1179.69 590.573C1252.54 426.021 1273.14 261.26 1234.31 153.83C1203 67.2155 1135.11 16.0485 1032.94 2.06751C1019.25 0.193513 979.453 -0.673494 965.944 0.607506Z" fill="#C2487B" fill-opacity="0.07"/>
</svg>
